<svg
  xmlns="http://www.w3.org/2000/svg"
  viewBox="0 0 24 24"
  width="24"
  height="24"
  fill="none"
  stroke="currentColor"
  stroke-width="2"
  stroke-linecap="round"
  stroke-linejoin="round"
>
  <path d="M1 16.9s1.6 2.7 5.7 2.9c.6-.7 1.1-1.4 1.7-2.1 2.3.6 4.8.6 7.1 0 .6.7 1.1 1.4 1.7 2.1 4.2-.1 5.8-2.9 5.8-2.9 0-6-2.7-10.9-2.7-10.9C17.6 4 15 4 15 4l-.5 1S13 4.7 12 4.7 9.5 5 9.5 5L9 4s-2.6-.1-5.3 2C3.7 6 1 10.9 1 16.9z" />
  <path d="M8.8 14c-.4 0-.8-.4-.8-1s.4-1 .8-1 .8.4.8 1-.4 1-.8 1zm6.4-2c.4 0 .8.4.8 1s-.4 1-.8 1-.8-.4-.8-1 .4-1 .8-1z" />
</svg>
