<svg
  xmlns="http://www.w3.org/2000/svg"
  viewBox="0 0 24 24"
  width="24"
  height="24"
  fill="none"
  stroke="currentColor"
  stroke-width="2"
  stroke-linecap="round"
  stroke-linejoin="round"
>
  <path d="M20.2 13.6c-1-.8-1-2.4 0-3.2l1.3-1c.2-.1.2-.4.1-.6l-2-3.5c-.1-.3-.3-.3-.6-.3l-1.6.6c-1.2.5-2.5-.3-2.7-1.6l-.2-1.7c0-.1-.2-.3-.5-.3h-4c-.2 0-.5.2-.5.4l-.2 1.7c-.2 1.3-1.6 2.1-2.8 1.6L4.9 5c-.2 0-.4 0-.6.3l-2 3.5c-.1.1 0 .4.2.6l1.3 1c1 .8 1 2.3 0 3.2l-1.4 1.1c-.2.1-.3.4-.1.6l2 3.5c.2.2.4.2.6.2l1.6-.6c1.2-.5 2.6.3 2.7 1.6l.2 1.7c0 .2.3.4.5.4h4c.3 0 .5-.2.5-.4l.2-1.7c.2-1.3 1.5-2.1 2.7-1.6l1.7.6c.2.1.5 0 .6-.2l2-3.5c.1-.2.1-.5-.1-.6l-1.3-1.1z" />
  <circle cx="12" cy="12" r="3" />
</svg>
